<svg xmlns="http://www.w3.org/2000/svg" viewBox="0 0 100 100">
  <defs>
    <linearGradient id="grad" x1="0%" y1="0%" x2="100%" y2="100%">
      <stop offset="0%" style="stop-color:#FF6B35;stop-opacity:1" />
      <stop offset="100%" style="stop-color:#FF8B5A;stop-opacity:1" />
    </linearGradient>
  </defs>
  <!-- Background Circle -->
  <circle cx="50" cy="50" r="48" fill="#1a1a2e"/>
  <!-- Stylized P for Pairobin -->
  <path d="M30 25 L30 75 L40 75 L40 55 L55 55 C70 55 75 45 75 40 C75 30 68 25 55 25 L30 25 Z M40 35 L52 35 C58 35 62 37 62 42 C62 47 58 50 52 50 L40 50 L40 35 Z" fill="url(#grad)"/>
  <!-- Shoe accent swoosh -->
  <path d="M25 70 Q45 65 65 72 Q75 75 80 70" stroke="url(#grad)" stroke-width="4" fill="none" stroke-linecap="round"/>
</svg>
